/* XPM */
static char *result[] = {
/* columns rows colors chars-per-pixel */
"32 32 4 1 ",
"  c gray26",
". c #252525",
"X c #868686",
"o c gray59",
/* pixels */
"      ...             ...       ",
"XXXXX  .  XXXXXXXXXXX  .  XXXXXX",
"XXXXXX   XXXXXXXXXXXXX   XXXXXXX",
"XXXXXXo XXXXXXXXXXXXXXo XXXXXXXX",
"XXXXXXo XXXXXXXXXXXXXXo XXXXXXXX",
"XXXXXXo XXXXXXXXXXXXXXo XXXXXXXX",
"XXXXXXo .XXXXXXXXXXXXXo .XXXXXXX",
"oooooo....oooooooooooo....oooooo",
"               ...            ..",
"XXXXXXXXXXXXXX  .  XXXXXXXXXX  .",
"XXXXXXXXXXXXXXX   XXXXXXXXXXXX  ",
"XXXXXXXXXXXXXXXo XXXXXXXXXXXXXo ",
"XXXXXXXXXXXXXXXo XXXXXXXXXXXXXo ",
"XXXXXXXXXXXXXXXo XXXXXXXXXXXXXo ",
"XXXXXXXXXXXXXXXo XXXXXXXXXXXXXo ",
"XXXXXXXXXXXXXXXo XXXXXXXXXXXXXo ",
"      ...             ...       ",
"XXXXX  .  XXXXXXXXXXX  .  XXXXXX",
"XXXXXX   XXXXXXXXXXXXX   XXXXXXX",
"XXXXXXo XXXXXXXXXXXXXXo XXXXXXXX",
"XXXXXXo XXXXXXXXXXXXXXo XXXXXXXX",
"XXXXXXo XXXXXXXXXXXXXXo XXXXXXXX",
"XXXXXXo .XXXXXXXXXXXXXo .XXXXXXX",
"oooooo....oooooooooooo....oooooo",
"            ...           ...   ",
"XXXXXXXXXXX  .  XXXXXXXXX  .  XX",
"XXXXXXXXXXXX   XXXXXXXXXXX   XXX",
"XXXXXXXXXXXXo XXXXXXXXXXXXo XXXX",
"XXXXXXXXXXXXo XXXXXXXXXXXXo XXXX",
"XXXXXXXXXXXXo XXXXXXXXXXXXo XXXX",
"XXXXXXXXXXXXo XXXXXXXXXXXXo XXXX",
"XXXXXXXXXXXXo XXXXXXXXXXXXo XXXX"
};
