/* XPM */
static char *result[] = {
/* columns rows colors chars-per-pixel */
"32 32 4 1 ",
"  c gray26",
". c #868686",
"X c gray59",
"o c #252525",
/* pixels */
" ......X ......  ......X  ......",
".......X XXXXX   ......X   .....",
".......X       oo......X o      ",
".......X .....  o......X   XXXXX",
"......XX ...... o......X  ......",
"......X .......X ......X .......",
"...XXX  .......X ......X .......",
"XXXX   ........X ......X .......",
"o    ..........X ......X .......",
"  ............X  ......X .......",
" .............X XX.....  .......",
".............X   XXXXX  o.......",
".............X         oo.......",
"............X  .....   oo.......",
"..........XX  ........  o.......",
"..........   ..........  .......",
"           ............X .......",
"....  o  ..............X XX.....",
".....   ..............X   XX....",
".....X ..............XX .  XX...",
".....X ..............X  ..  XX..",
".....X .............X  ....  XX.",
".....X o...........X  ......  XX",
"XXXXXooooXXXXXXXXXX  ........  X",
"       oo           X.........  ",
"........  o  ......  XX........ ",
".........   ........  XX....... ",
".........X ..........  XX.....  ",
".........X ...........  XX...  o",
".........X ............  XX.  oo",
".........X .............  X  ooo",
".........X ..............   oooo"
};
