/* XPM */
static char *result[] = {
/* columns rows colors chars-per-pixel */
"32 32 4 1 ",
"  c #868686",
". c gray26",
"X c gray59",
"o c #252525",
/* pixels */
"       .X      .     ..oX      .",
"       .X      .      ..X       ",
"       .X      .       .X       ",
"       .X      .       .XX      ",
"       .X     ..       ..X      ",
"       .oXXXX...        .X      ",
"       .o.....o.        ..XX    ",
"       ooo   ...         ..XXXXX",
"      .oo     ..           .....",
"XXXXX...X      .             .X ",
"......o.X      ..X           .X ",
"     ...X       .X           .X ",
"      ..X       ..X          .X ",
"       .X        ..XX        .X ",
"       .X         ...XX     ... ",
"       .X          ....XXXX..o..",
"       .X          ..X.....ooo..",
"       .X          .XX          ",
"       .X          .X           ",
"      ...X         .X           ",
"     ..X..X       ..X           ",
"    ..X  ..XX     ..X           ",
"   ..XX   ..XX   ....           ",
"  ..XX     ...XX..oo..XXXXXXXXXX",
" ..XX        ....oooo...........",
"..XX        ..X            ..o..",
".XX        ..XX             ... ",
"..        ..XX              X.  ",
"o..      ..XX               X.  ",
"oo..    ..XX                X.  ",
"ooo..  ..XX                 X.  ",
"oooo....XX                  X.  "
};
