/* XPM */
static char *result[] = {
/* columns rows colors chars-per-pixel */
"32 32 4 1 ",
"  c #252525",
". c gray26",
"X c #868686",
"o c gray59",
/* pixels */
"  ............................  ",
" ..X.oXXXXXXXXXXXX.oXXXXXXXXX.. ",
"..XX.oXXXXXXXXXXXX.oXXXXXXXXXX..",
".XXX.oXXXXXXXXXXXX.oXXXXXXXXXXX.",
".XXX.oXXXXXXXXXXXX.oXXXXXXXXXXX.",
".XX...XXXXXXXXXXX...XXXXXXXXXXX.",
".X.. ..XXXXXXXXX.. ..XXXXXXXXXX.",
"...   ...........   ............",
".ooooo    oooooooooooo    ooooo.",
".XXXXXX .oXXXXXXXXXXXXX .oXXXXX.",
".XXXXXXX.oXXXXXXXXXXXXXX.oXXXXX.",
".XXXXXXX.oXXXXXXXXXXXXXX.oXXXXX.",
".XXXXXXX.oXXXXXXXXXXXXXX.oXXXXX.",
".XXXXXX...XXXXXXXXXXXXX...XXXXX.",
".XXXXX.. ..XXXXXXXXXXX.. ..XXXX.",
".......   .............   ......",
".oXXXXXXXXXXXXX.oXXXXXXXXXXXXXX.",
".oXXXXXXXXXXXXX.oXXXXXXXXXXXXXX.",
".oXXXXXXXXXXXXX.oXXXXXXXXXXXXXX.",
".oXXXXXXXXXXXXX.oXXXXXXXXXXXXXX.",
".oXXXXXXXXXXXXX.oXXXXXXXXXXXXXX.",
"..XXXXXXXXXXXX...XXXXXXXXXXXXXX.",
"...XXXXXXXXXX.. ..XXXXXXXXXXXXX.",
". ............   ...............",
".ooooo    oooooooooooo    ooooo.",
".XXXXXX .oXXXXXXXXXXXXX .oXXXXX.",
".XXXXXXX.oXXXXXXXXXXXXXX.oXXXXX.",
".XXXXXXX.oXXXXXXXXXXXXXX.oXXXXX.",
".XXXXXXX.oXXXXXXXXXXXXXX.oXXXXX.",
"..XXXXX...XXXXXXXXXXXXX...XXXX..",
" ..XXX.. ..XXXXXXXXXXX.. ..XX.. ",
"  .....   .............   ....  "
};
