/* XPM */
static char *result[] = {
/* columns rows colors chars-per-pixel */
"32 32 14 1 ",
"  c gray21",
". c #4B4B4B",
"X c #161616",
"o c #040404",
"O c #25131A",
"+ c #DFBBB3",
"@ c #E84444",
"# c #9A8571",
"$ c #D01946",
"% c #CCF61F",
"& c #802954",
"* c #3D253B",
"= c #606060",
"- c #523B40",
/* pixels */
" . . . Xo  ...   Xo .. ..  oX   ",
"XooX  Xoo .   XXXooX  Xoo . oX  ",
"o  oXXooX OOooooo  oOOooX   oo  ",
" .   o  oXOOooo  . oOO  oXXXoo  ",
"... OO. OO++OOOOOOOO++OO  OO o .",
"  ..OO  OO++OOOOOOOO++OO..OO o  ",
" XOO@@OOOO##@@@@@@@@##OOOO@@OOX ",
"XoOO@@OOOO##@@@@@@@@##OOOO@@OOoX",
"ooOO$$@@OOOO%%$$$$%%OOOO@@$$OOoo",
" oOO$$@@OOOO%%$$$$%%OOOO@@$$OO  ",
" oOO$$&&@@OO$$****$$OO@@&&$$OO .",
" oOO$$&&@@OO$$****$$OO@@&&$$OOX ",
" oOO$$&&&&OOOO$$$$OOOO&&&&$$OOoX",
"XoOO$$&&&&OOOO$$$$OOOO&&&&$$OO o",
"ooOO$$&&OO@@@@&&&&@@@@OO&&$$OO  ",
"  OO$$&&OO@@@@&&&&@@@@OO&&$$OO. ",
" XOO$$OO$$&&$$@@@@$$&&$$OO$$OO  ",
"XoOO$$OO$$&&$$@@@@$$&&$$OO$$OOXX",
"o  oOOOO&&OO&&$$$$&&OO&&OOOOoooo",
" . oOOOO&&OO&&$$$$&&OO&&OOOOo   ",
"..    OO@@OOOO&&&&OOOO@@OOoo  ..",
"  ....OO@@OOOO&&&&OOOO@@OO   .. ",
"       XOOOO$$$$$$$$OOOOo  .    ",
"XooXXXXoOOOO$$$$$$$$OOOO  .. XoX",
"ooooooooX OO$$&&&&$$OOooX ..Xooo",
"  o   ooo OO$$&&&&$$OOooo . oo  ",
".. .. o OO@@$$OOOO$$@@OO  .    .",
"....  o OO@@$$OOOO$$@@OO ..     ",
"     XOO==--OO   oOO--==OO  oooX",
"Xo  XoOO==--OO  XoOO--==OOXXo  o",
"ooXXo    ooo .  ooXX    oooo .  ",
"  oo .. o  o ..   oo .. o    .. "
};
