/* XPM */
static char *result[] = {
/* columns rows colors chars-per-pixel */
"32 32 7 1 ",
"  c #1B1D1C",
". c #21201F",
"X c #2F2A29",
"o c #373231",
"O c #1F1C1B",
"+ c #121010",
"@ c #41403C",
/* pixels */
"                                ",
" ...XXXXXXXXXXXXX....    .XXXXX ",
" .XXooooooooooooo.oooooooXXXXXX ",
" ..OOoXOOOOXX.OOOXXOOOOXXOOOOXo ",
" oXXXooXooXXXXXXXXXXXXXXXoooXXo ",
" o.OOXX.OO.XXOOOOOXOOO.XX.OOOXo ",
" X..OXoO...XX....OXO...Xo....oo ",
" X..OXo....XX....oXO...Xo....oo ",
" X+++Xo++++XX++++oX++++oo+++XXX ",
" X+++oo++++XX++++XX++++XX++++XX ",
" X+++XX++++XX++++.X++++XX++++.X ",
" X+++XX++++Xo++++.X++++X@++++@X ",
" X+++XX++++Xo++++.@++++X@++++oX ",
" X+++oX++++Xo++++X@++++X@++++oX ",
" X+++oo++++XX++++XX++++oX++++oX ",
" X+++XX++++XX++++XX++++oX++++oX ",
" X+++XX++++Xo++++Xo++++oX++++oX ",
" X+++XX++++Xo++++Xo++++oX++++oX ",
" X+++oo++++oo++++Xo++++oX++++oX ",
" X+++@X++++XX++++XX++++oX++++.X ",
" X+++@X++++XX++++XX++++oX++++.X ",
" X+++@o++++XX++++X@++++XX++++.X ",
" X+++Xo++++@@++++X@++++X@++++@o ",
" X+++Xo++++@X++++X@++++oo++++Xo ",
" X+++oo++++XX++++X@++++oo++++oo ",
" X+++XX++++XX++++X@++++XX+++.Xo ",
" X+++@o++++Xo++++XX++++.@+++.Xo ",
" X+++@o++++@o++++@X++++X@+++.@X ",
" .oooooXooooooooo@XXXXXoooo@@@X ",
" ..ooooooXXXXX.......XooXXXoooX ",
" XXXXXXXXXXX..XXXXXXXXXXXXXXXXX ",
"                                "
};
