/* XPM */
static char *result[] = {
/* columns rows colors chars-per-pixel */
"32 32 10 1 ",
"  c gray21",
". c #4B4B4B",
"X c #161616",
"o c #040404",
"O c #9E6138",
"+ c #EEAF00",
"@ c #FFF2C5",
"# c #FFE433",
"$ c #ECD331",
"% c #D18D28",
/* pixels */
" . . . Xo  ...   Xo .. ..  oX   ",
"XooX  Xoo .   XXXooX  Xoo . oX  ",
"o  oXXooX   ooooo  oXXooX   oo  ",
" .   o  oXXXooo  . ooo  oXXXoo  ",
"...   .  ooo o ... o  .      o .",
"  ....  Xo   o .   o . ....  o  ",
" X     Xo .. oX  XXo      .. oX ",
"XooXXXXo  .  XoXXooO+XXo     XoX",
"oooooooo .. Xoooo@#+#$ooXXXXXooo",
" oo   oo .. oo %@#$$#+Oooooo    ",
" o .. o  .  o +O#$+$++O     .. .",
" o .. o  .. o@++$+#$$$$  ...  X ",
" o .. oX    o#+$+##$OO%X    oooX",
"Xo  .  oXXXX%#$$+$+OO%%$XXXXo  o",
"ooX ..  ooo%O$$+$++$$$$ oooo .  ",
"  oo .. o@@O+$+$#$$$$$. o  .... ",
" Xo    Xo###$%##$OO%   Xo  .    ",
"XooX  Xo%#$$%$++OO%X  Xoo . oXXX",
"o  oXXooO$$%$++$$$ oXXooX   oooo",
" . ooo O+$%##$$$$. ooo  oXXXo   ",
"..    .O+%##$$$$..    .  ooo  ..",
"  .... @$O#$+OO%     .  Xo   .. ",
"       XO$++OoX        Xo  .    ",
"XooXXXXo +$  XoXXooXXXXo  .. XoX",
"ooooooooX . XoooooooooooX ..Xooo",
"  o   ooo . oo   oo   ooo . oo  ",
".. .. o   . o  . o .. o   .    .",
"....  o  .. oX   o .  o  ..     ",
"     Xo .   oo   o    oX    oooX",
"Xo  Xoo..XXXo   Xo     oXXXXo  o",
"ooXXo    ooo .  ooXX    oooo .  ",
"  oo .. o  o ..   oo .. o    .. "
};
