/* XPM */
static char *_85c06a6cb6d44b3b683dc73596e2c38pw5xjqbnh6IN92p2[] = {
/* columns rows colors chars-per-pixel */
"32 32 9 1 ",
"  c gray21",
". c #4B4B4B",
"X c #161616",
"o c #040404",
"O c #9E6138",
"+ c #FFF2C5",
"@ c #EEAF00",
"# c #D18D28",
"$ c #ECD331",
/* pixels */
" . . . Xo  ...   Xo .. ..  oX   ",
"XooX  Xoo .   XXXooX  Xoo . oX  ",
"o  oXXooX   ooooo  oXXooX   oo  ",
" .   o  oXXXooo  . ooo  oXXXoo  ",
"...   .  ooo o ... o  .      o .",
"  ....  Xo   o .   o . ....  o  ",
" X     Xo .. oX  XXo      .. oX ",
"XooXXXXo  .  XoXXooOOXXo     XoX",
"oooooooo .. Xoooo+@@@@ooXXXXXooo",
" oo   oo .. oo #+@O@@@Oooooo    ",
" o .. o  .  o @O@@O@@@O     .. .",
" o .. o  .. o+@OO@@@@@@  ...  X ",
" o .. oX    o@@@@@@@OO#X    oooX",
"Xo  .  oXXXX#@@@@@@OO##$XXXXo  o",
"ooX ..  ooo#OOO@#O@@@$$ oooo .  ",
"  oo .. o++O@@@#@@@@O$. o  .... ",
" Xo    Xo@@@@##@@OO#   Xo  .    ",
"XooX  XoOO@@#O@@OO#X  Xoo . oXXX",
"o  oXXooO@@#O@@@@@ oXXooX   oooo",
" . ooo O@@#@@@OO@. ooo  oXXXo   ",
"..    .O@#@@@@@@..    .  ooo  ..",
"  .... +$O@@@OO#     .  Xo   .. ",
"       XO$@@OoX        Xo  .    ",
"XooXXXXo @$  XoXXooXXXXo  .. XoX",
"ooooooooX . XoooooooooooX ..Xooo",
"  o   ooo . oo   oo   ooo . oo  ",
".. .. o   . o  . o .. o   .    .",
"....  o  .. oX   o .  o  ..     ",
"     Xo .   oo   o    oX    oooX",
"Xo  Xoo..XXXo   Xo     oXXXXo  o",
"ooXXo    ooo .  ooXX    oooo .  ",
"  oo .. o  o ..   oo .. o    .. "
};
