/* XPM */
static char *result[] = {
/* columns rows colors chars-per-pixel */
"32 32 4 1 ",
"  c #868686",
". c gray26",
"X c gray59",
"o c #252525",
/* pixels */
"       .X      .       .X      .",
"       .X      .       .X      .",
"       .X      .       .X      .",
"       .X      .       .X      .",
"       .X      .       .X      .",
"       .X     ..       .X     ..",
"       .oXXXX..o       .oXXXX..o",
"       .o.....oo       .o.....oo",
"       .oo   ..o       .oo   ..o",
"       .o     ..       .o     ..",
"       .X      .       .X      .",
"      ..X      .       .X      .",
"XXXXX..oX      .       .X      .",
"......ooX      .       .X      .",
"     ..oX      .      ..X      .",
"      ..X      .XXXXX..oX      .",
"       .X      .......ooX      .",
"       .X      .     ..oX      .",
"       .X      .      ..X      .",
"       .X      .       .X      .",
"       .X      .       .X      .",
"       .X     ..       .X     ..",
"       .oXXXX..o       .oXXXX..o",
"       .o.....oo       .o.....oo",
"       .oo   ..o       .oo   ..o",
"      ..o     ..       .o     ..",
"XXXXX..oX      .       .X      .",
"......ooX      .       .X      .",
"     ..oX      .       .X      .",
"      ..X      .      ..X      .",
"       .X      .XXXXX..oX      .",
"       .X      .......ooX      ."
};
