/* XPM */
static char *result[] = {
/* columns rows colors chars-per-pixel */
"32 32 13 1 ",
"  c gray21",
". c #4B4B4B",
"X c #161616",
"o c #040404",
"O c gray59",
"+ c #868686",
"@ c #48475B",
"# c #F2BC7E",
"$ c #FBDFB1",
"% c #1B1B1B",
"& c #211F30",
"* c white",
"= c gray27",
/* pixels */
" . . . Xo  ...   Xo .. ..  oX   ",
"XooX  Xoo .   XXXooX  Xoo . oX  ",
"o  oXXooX   ooooo  oXXooX   oo  ",
" .   o  oooXooo  . oooo oXXXoo  ",
"...   .oOO+o o ... oOO+o     o .",
"  ....oOOO++oo .  oOOOO+o..  o  ",
" X    oOO++ooooooooOOOO+o .. oX ",
"XooXXXoOOOOOOOOOOOOOOOO+o    XoX",
"ooooooOOO@@@@@@@@@@OO++O+oXXXooo",
" oo  oOO@##########@O++O+ooo    ",
" o ..oO@#$%%$$$$$$##&OOO+o  .. .",
" o ..oO@$%**%$%%%%$#&O+O+o..  X ",
" o ..oO@$%**%$%**%$#&OOO+o  oooX",
"Xo  .oO@$%**%$%**%$#&OOO+oXXo  o",
"ooX .oO@$#%%#$#%%#$#&OOO+ooo .  ",
"  oo oO+@$$$$$$$$$#&+OOO+o .... ",
" Xo  oOO+&&&&&&&&&&+OOOO+o .    ",
"XooX  o=OOOOOOOOOOOOOOO=o . oXXX",
"o  oXXoo==OOOOOOOOOO===oX   oooo",
" . ooo ooo=%%%%%%%===ooooXXXo   ",
"..    o%o====%%%====%===oooo  ..",
"  ...o#oo=====%=====o%oo#o   .. ",
"     o##o++OOOOOOO+O+o#$$o .    ",
"XooXXXooo============%ooo .. XoX",
"ooooooooo==oooooooo==%ooX ..Xooo",
"  o   ooo%=%oo   oo%=%ooo . oo  ",
".. .. o  o%%o  . o o%%o   .    .",
"....  o  .oooX   o .ooo  ..     ",
"     Xo .   oo   o    oX    oooX",
"Xo  Xoo..XXXo   Xo     oXXXXo  o",
"ooXXo    ooo .  ooXX    oooo .  ",
"  oo .. o  o ..   oo .. o    .. "
};
