/* XPM */
static char *result[] = {
/* columns rows colors chars-per-pixel */
"32 32 11 1 ",
"  c gray21",
". c #4B4B4B",
"X c #161616",
"o c #040404",
"O c gray59",
"+ c #868686",
"@ c gray27",
"# c #1B1B1B",
"$ c #F2BC7E",
"% c #D8E1E4",
"& c white",
/* pixels */
" . . . Xo  ...   Xo .. ..  oX   ",
"XooX  Xoo .   XXXooX  Xoo . oX  ",
"o  oXXooX   ooooo  oXXooX   oo  ",
" .   o  ooooooo  . oooo oXXXoo  ",
"...   . oOO+oo ... o+OOo     o .",
"  .... oOOO++o .  o++OOOo..  o  ",
" X     oOO+++oooooo+++OOo .. oX ",
"XooXXXXoOOOOOOOOOOOOOOOOo    XoX",
"oooooooOOO++OOOOOOOO++OOOoXXXooo",
" oo   oOOO++OOOOOOOO++OOOooo    ",
" o .. oOOOOOOOOOOOOOOOOOOo  .. .",
" o .. oOOO+OOOOOOOOOO+OOOo..  X ",
" o .. oOOOOOOOOOOOOOOOOOOo  oooX",
"Xo  . oOOOOOOOOOOOOOOOOOOoXXo  o",
"ooX ..oOOOOOOOO++OOOOOOOOooo .  ",
"  oo .oOOOOOOO+OO+OOOOOOOo .... ",
" Xo   oOOOOOOOOOOOOOOOOOOo .    ",
"XooX  Xo@OOOOOOOOOOOOOO@o . oXXX",
"o  oXXooo@@OOOOOOOOOO@@oX   oooo",
" . ooo  ooo@@@@@@@@@@ooooXXXo   ",
"..    .o#o@@@@@@@@@@@@o#oooo  ..",
"  ....o$oo@@@@@@@@@@@@oo$o   .. ",
"      o$$o%%&&&&&&&&%%o$$o .    ",
"XooXXXXooo@@@@@@@@@@@@ooo .. XoX",
"ooooooooXo@@oooooooo@@ooX ..Xooo",
"  o   oooo#@#o   oo#@#ooo . oo  ",
".. .. o   o##o . oo##oo   .    .",
"....  o  ..ooX   o oo o  ..     ",
"     Xo .   oo   o    oX    oooX",
"Xo  Xoo..XXXo   Xo     oXXXXo  o",
"ooXXo    ooo .  ooXX    oooo .  ",
"  oo .. o  o ..   oo .. o    .. "
};
