/* XPM */
static char *result[] = {
/* columns rows colors chars-per-pixel */
"32 32 24 1 ",
"  c #1C1C1F",
". c #28282B",
"X c #2C2C30",
"o c #402E30",
"O c #553A3A",
"+ c #753030",
"@ c #783A3D",
"# c #323942",
"$ c #393940",
"% c #4B555E",
"& c #634440",
"* c #634D49",
"= c #715148",
"- c #785A53",
"; c #435361",
": c #4B6275",
"> c #8C3430",
", c #8A3E3E",
"< c #A14343",
"1 c #B35249",
"2 c #82604F",
"3 c #BA8A79",
"4 c #DEA48A",
"5 c transparent",
/* pixels */
"55555555555555555555555555555555",
"55555555555555555555555555555555",
"55555555555555555555555555555555",
"55555555555555555555555555555555",
"55555555555555555555555555555555",
"55555555555555555555555555555555",
"55555555555555555555555555555555",
"55555555555555555555555555555555",
"55555555555555555555555555555555",
"55555555555555555555555555555555",
"55555555555555555555555555555555",
"55555555555555555555555555555555",
"55555555555555OOOO55555555555555",
"555555555555OO2==&oo555555555555",
"55555555555O22=OOOO&o55555555555",
"5555555555O22===OO==&o5555555555",
"5555555555O2==&&&=&==o5555555555",
"5555555555O==&=&&=&&=&o555555555",
"5555555555o=&O2=O2=O==o555555555",
"555555555oO&&OOO4OOOOo5555555555",
"555555555o=O&O4%444%3Oo555555555",
"555555555oO&O44%444%-Oo555555555",
"5555555555+>-4444444->+555555555",
"555555555o=&o--333--o&=o55555555",
"555555555ooo@11111<@5ooo55555555",
"55555555555@1111111@*55555555555",
"55555555555@11,1111@3*5555555555",
"55555555555@144-111@3*5555555555",
"555555555555@44-<<<@*55555555555",
"5555555555555--::::#555555555555",
"5555555555555#::##;#555555555555",
"5555555555555 X$  . 555555555555"
};
