/* XPM */
static char *result[] = {
/* columns rows colors chars-per-pixel */
"32 32 13 1 ",
"  c gray21",
". c #4B4B4B",
"X c #161616",
"o c #040404",
"O c #868686",
"+ c gray59",
"@ c #48475B",
"# c #F2BC7E",
"$ c #211F30",
"% c #FBDFB1",
"& c #1B1B1B",
"* c white",
"= c gray27",
/* pixels */
" . . . Xo  ...   Xo .. ..  oX   ",
"XooX  Xoo .   XXXooX  Xoo . oX  ",
"o  oXXooX   ooooo  oXXooX   oo  ",
" .   o  oooXooo  . oooo oXXXoo  ",
"...   .oO++o o ... oO++o     o .",
"  ....oO++++oo .  oOO+++o..  o  ",
" X    oO++++ooooooooOO++o .. oX ",
"XooXXXoO++++++++++++++++o    XoX",
"ooooooO+OO++@@@@@@@@@@+++oXXXooo",
" oo  oO+OO+@##########@++ooo    ",
" o ..oO+++$##%%%%%%&&%#@+o  .. .",
" o ..oO+O+$#%&&&&%&**&%@+o..  X ",
" o ..oO+++$#%&**&%&**&%@+o  oooX",
"Xo  .oO+++$#%&**&%&**&%@+oXXo  o",
"ooX .oO+++$#%#&&#%#&&#%@+ooo .  ",
"  oo oO+++O$#%%%%%%%%%@O+o .... ",
" Xo  oO++++O$$$$$$$$$$O++o .    ",
"XooX  o=+++++++++++++++=o . oXXX",
"o  oXXoo===++++++++++==oX   oooo",
" . ooo ooo===&&&&&&&=ooooXXXo   ",
"..    o===&====&&&====o&oooo  ..",
"  ...o#oo&o=====&=====oo#o   .. ",
"     o%%#oO+O+++++++OOo##o .    ",
"XooXXXooo&============ooo .. XoX",
"ooooooooo&==oooooooo==ooX ..Xooo",
"  o   ooo&=&oo   oo&=&ooo . oo  ",
".. .. o o&&oo  . oo&&oo   .    .",
"....  o  oo oX   o oo o  ..     ",
"     Xo .   oo   o    oX    oooX",
"Xo  Xoo..XXXo   Xo     oXXXXo  o",
"ooXXo    ooo .  ooXX    oooo .  ",
"  oo .. o  o ..   oo .. o    .. "
};
