/* XPM */
static char *result[] = {
/* columns rows colors chars-per-pixel */
"32 32 4 1 ",
"  c gray26",
". c #868686",
"X c gray59",
"o c #252525",
/* pixels */
" ......Xoo       ......X .......",
" ......Xo  XXXXX ......X .......",
" ......X  ...... ......X  ......",
" ......X ....... ......Xo  .....",
" ......X ....... ......Xoo      ",
" ......X ....... ......Xo  XXXXX",
"  .....o .......  .....o  ......",
"o  ...oo .......o  ...oo .......",
"oo     o .......oo     o .......",
"o  XXXXo .......o  XXXXo .......",
"  .....X .......  .....X .......",
" ......X ....... ......X .......",
" ......X ....... ......X .......",
" ......X  ...... ......X .......",
" ......Xo  ..... ......X .......",
" ......Xoo       ......X .......",
" ......Xo  XXXXX ......X  ......",
" ......X  ...... ......Xo  .....",
" ......X ....... ......Xoo      ",
" ......X ....... ......Xo  XXXXX",
" ......X ....... ......X  ......",
" ......X ....... ......X .......",
"  .....o .......  .....o .......",
"o  ...oo .......o  ...oo .......",
"oo     o .......oo     o .......",
"o  XXXXo .......o  XXXXo .......",
"  .....X .......  .....X .......",
" ......X ....... ......X .......",
" ......X ....... ......X .......",
" ......X ....... ......X .......",
" ......X ....... ......X .......",
" ......X ....... ......X ......."
};
