/* XPM */
static char *result[] = {
/* columns rows colors chars-per-pixel */
"32 32 4 1 ",
"  c gray21",
". c #4B4B4B",
"X c #161616",
"o c #040404",
/* pixels */
" . . . Xo  ...   Xo .. ..  oX   ",
"XooX  Xoo .   XXXooX  Xoo . oX  ",
"o  oXXooX   ooooo  oXXooX   oo  ",
" .   o  oXXXooo  . ooo  oXXXoo  ",
"...   .  ooo o ... o  .      o .",
"  ....  Xo   o .   o . ....  o  ",
" X     Xo .. oX  XXo      .. oX ",
"XooXXXXo  .  XoXXooXXXXo     XoX",
"oooooooo .. XoooooooooooXXXXXooo",
" oo   oo .. oo   oo   oooooo    ",
" o .. o  .  o  . o .. o     .. .",
" o .. o  .. o .. o .  o  ...  X ",
" o .. oX    o .. o    oX    oooX",
"Xo  .  oXXXXo .. o    ooXXXXo  o",
"ooX ..  oooo ... oX     oooo .  ",
"  oo .. o  o ..   oo .. o  .... ",
" Xo    Xo  oX    Xo    Xo  .    ",
"XooX  Xoo . oXXXXooX  Xoo . oXXX",
"o  oXXooX   ooooo  oXXooX   oooo",
" . ooo  oX .ooo  . ooo  oXXXo   ",
"..    .  o . o ...    .  ooo  ..",
"  ....  Xo . o       .  Xo   .. ",
"       Xo .. oX        Xo  .    ",
"XooXXXXo     XoXXooXXXXo  .. XoX",
"ooooooooX . XoooooooooooX ..Xooo",
"  o   ooo . oo   oo   ooo . oo  ",
".. .. o   . o  . o .. o   .    .",
"....  o  .. oX   o .  o  ..     ",
"     Xo .   oo   o    oX    oooX",
"Xo  Xoo..XXXo   Xo     oXXXXo  o",
"ooXXo    ooo .  ooXX    oooo .  ",
"  oo .. o  o ..   oo .. o    .. "
};
