/* XPM */
static char *_639390962869[] = {
/* columns rows colors chars-per-pixel */
"96 96 15 1 ",
"  c #A0A0A0",
". c gray72",
"X c gray",
"o c #C8C8C8",
"O c #CECECE",
"+ c gray84",
"@ c gray87",
"# c #E2E2E2",
"$ c #E6E6E6",
"% c #EAEAEA",
"& c #EFEFEF",
"* c #F3F3F3",
"= c gray97",
"- c #FBFBFB",
"; c white",
/* pixels */
";;;;;;   %$%;;;;;;;;;;;;;;;;;;-=-***;;;;;;;;;-=-***;;;;;;;;;;;;;;;=-=***XXXOOOOOO&&&%%%;;;...***",
";;;;;;   $%$;;;;;;;;;;;;;;;;;;===***;;;;;;;;;===***;;;;;;;;;;;;;;;===***XXXOOOOOO&&&%%%;;;...***",
";;;;;;   %$%;;;;;;;;;;;;;;;;;;===***;;;;;;;;;==-***;;;;;;;;;;;;;;;-==***XXXOOOOOO&&&%%%;;;...***",
"===;;;;;;---###*&*@@@$$$;;;   ;;;   $$$;;;   ;;;   ***@@@$$$;;;   ;;;   ;;;;;;;;;;;;;;;;;;=-=***",
"===;;;;;;---###***@@@$$$;;;   ;;;   $$$;;;   ;;;   &**@@@$$$;;;   ;;;   ;;;;;;;;;;;;;;;;;;-==***",
"===;;;;;;---##@*&*@@@$$$;;;   ;;;   $$$;;;   ;;;   *&*@@@$$$;;;   ;;;   ;;;;;;;;;;;;;;;;;;===***",
"%%%###******%%%$$$+++;;;;;;%$%ooo;;;;;;;;;%$%ooo;;;$$$+++;;;;;;$$%ooo;;;###**&@@@$$$;;;   ;;;   ",
"%%%###******%%%$$$+++;;;;;;$%$ooo;;;;;;;;;$%$ooo;;;$$$+++;;;;;;$%$ooo;;;###***@@@$$$;;;   ;;;   ",
"%%%###******%%%$$$+++;;;;;;%$%ooo;;;;;;;;;$$$ooo;;;$$$+++;;;;;;%$$ooo;;;###***@@@$$$;;;   ;;;   ",
"***************;;;;;;;;;;;;;;;   $$%;;;;;;;;;%%$ooo;;;;;;;;;;;;;;;   %%$%%%$#$+++;;;;;;$%$ooo;;;",
"***************;;;;;;;;;;;;;;;   $%$;;;;;;;;;$%$ooo;;;;;;;;;;;;;;;   %$%%%%$$$+++;;;;;;%%$ooo;;;",
"************&*&;;;;;;;;;;;;;;;   %$%;;;;;;;;;%$%ooo;;;;;;;;;;;;;;;   $%$%%%$$$+++;;;;;;$$%ooo;;;",
"%%%;;;...***;;;&&&&&&;;;===;;;;;;---;;;===;;;;;;   &&&&&&;;;===;;;;;;---*&*;;;;;;;;;;;;;;;   %$%",
"%%%;;;...***;;;&&&&&&;;;===;;;;;;---;;;===;;;;;;   &&&&&&;;;===;;;;;;---***;;;;;;;;;;;;;;;   $%$",
"%%%;;;...***;;;&&&&&&;;;===;;;;;;---;;;===;;;;;;   &&&&&&;;;===;;;;;;---*&*;;;;;;;;;;;;;;;   %$%",
";;;;;;-==***###;;;**&---%%%###******---%%%###;;;;;;;;;**&---%%%###******;;;&&&&&&;;;===;;;;;;---",
";;;;;;===***###;;;*&*=--%%%###******-=-%%%###;;;;;;;;;*&*--=%%%###******;;;&&&&&&;;;===;;;;;;---",
";;;;;;-==***###;;;***-=-%%%###******---%%%###;;;;;;;;;**&---%%%###******;;;&&&&&&;;;===;;;;;;---",
";;;   ;;;   ###**&@@@$$$;;;   ;;;   ###***@@@###***   ;;;;;;;;;;;;;;;;;;###;;;&*&---%%%###******",
";;;   ;;;   ###***@@@$$$;;;   ;;;   ##@***@@@###***   ;;;;;;;;;;;;;;;;;;###;;;***---%%%###******",
";;;   ;;;   ###***@@@$$$;;;   ;;;   ###*&*@@@###***   ;;;;;;;;;;;;;;;;;;##@;;;&*&--=%%%###******",
";;;%$$ooo;;;%%%$$$+++;;;;;;$%$ooo;;;%%%$$$+++===***%%$ooo###***@@@$$$###;;;***---%%%###******-==",
";;;$%$ooo;;;%%%$$$+++;;;;;;%$%ooo;;;%%%$$$+++-=-***$$%ooo###&*&@@@$$$###;;;***---%%%###******=-=",
";;;%$%ooo;;;%%%#$$+++;;;;;;$%$ooo;;;%%%$$$+++===***$%$ooo###***@@@$$$###;;;**&-=-%%%###******===",
";;;;;;   %$%&**;;;;;;;;;;;;;;;   $$%*&*;;;;;;;;;   ;;;   %%%$$$+++;;;;;;%$%###***@@@$$$;;;   ;;;",
";;;;;;   $%$***;;;;;;;;;;;;;;;   $%$***;;;;;;;;;   ;;;   %%%$$$+++;;;;;;$%$##@*&&@@@$$$;;;   ;;;",
";;;;;;   $$%***;;;;;;;;;;;;;;;   %$%*&*;;;;;;;;;   ;;;   %%%$$$+++;;;;;;%$$###***@@@$$$;;;   ;;;",
"===;;;;;;---;;;&&&&&&;;;===;;;;;;---;;;&&&&&&ooo;;;;;;;;;**&;;;;;;;;;;;;;;;%%%$$$+++;;;;;;$%%ooo",
"===;;;;;;---;;;&&&&&&;;;===;;;;;;---;;;&&&&&&ooo;;;;;;;;;***;;;;;;;;;;;;;;;%%%$$$+++;;;;;;%$$ooo",
"===;;;;;;---;;;&&&&&&;;;===;;;;;;---;;;&&&&&&ooo;;;;;;;;;*&*;;;;;;;;;;;;;;;%%%$$$+++;;;;;;$%$ooo",
"%%%###******###;;;***%$%ooo###******###;;;***   %$$###***;;;&&&&&&;;;===;;;*&*;;;;;;;;;;;;;;;   ",
"%%%###******###;;;&*&$%$ooo###******###;;;&**   $%$###***;;;&&&&&&;;;===;;;***;;;;;;;;;;;;;;;   ",
"%%%###******###;;;***%$%ooo###******###;;;***   $$%###***;;;&&&&&&;;;===;;;**&;;;;;;;;;;;;;;;   ",
"************###******;;;   *********###******;;;---******###;;;*&*---%%%###;;;&&&&&&;;;===;;;;;;",
"************###******;;;   *********###******;;;---******###;;;***--=%%%###;;;&&&&&&;;;===;;;;;;",
"************###******;;;   *********###******;;;---******###;;;*&*---%%%###;;;&&&&&&;;;===;;;;;;",
"%%%;;;...***XXXOoOOOO;;;;;;;;;...***XXXOOOOOO******;;;...XXXOOOOOO&&&###***###;;;***-=-%%%###***",
"%%%;;;...***XXXOOOOOO;;;;;;;;;...***XXXOOOOOO******;;;...XXXOOOOOO&&&###***###;;;&*&---%%%###***",
"%%%;;;...***XXXOOOOOO;;;;;;;;;...***XXXOOOOOO******;;;...XXXOOOOOO&&&###***###;;;***---$%%###***",
";;;;;;-==***;;;;;;;;;###***;;;===***;;;;;;;;;;;;;;;;;;===;;;;;;;;;;;;XXX###*********************",
";;;;;;===***;;;;;;;;;###***;;;-==***;;;;;;;;;;;;;;;;;;=-=;;;;;;;;;;;;XXX###*********************",
";;;;;;-==***;;;;;;;;;###***;;;===***;;;;;;;;;;;;;;;;;;===;;;;;;;;;;;;XXX###*********************",
";;;   ;;;   ###***@@@===***   ;;;   ###*&*@@@$$$;;;   ;;;###***@@@$$$;;;XXXOOOOOO&&&%%%;;;...***",
";;;   ;;;   ###***@@@-==***   ;;;   ###***@@@$$$;;;   ;;;###&**@@@$$$;;;XXXOOOOOO&&&%%%;;;...***",
";;;   ;;;   ###&**@@@==-***   ;;;   ###***@@@$$$;;;   ;;;###***@@@$$$;;;XXXOoOOOO&&&%%%;;;...***",
"******************+++;;;   %$%ooo;;;%%%$$#+++;;;;;;$%$ooo%%%$$#+++;;;###;;;;;;;;;;;;;;;;;;=-=***",
"******************+++;;;   $%$ooo;;;%%%$$$+++;;;;;;%$%ooo%%%$$$+++;;;###;;;;;;;;;;;;;;;;;;===***",
"******************+++;;;   %$%ooo;;;%%%$$$+++;;;;;;$%$ooo%%%$$$+++;;;###;;;;;;;;;;;;;;;;;;==-***",
"OOO&&&%%%;;;...***;;;ooo;;;;;;   %$%ooo;;;;;;;;;;;;;;;%$%ooo;;;;;;;;;%%%###***@@@$$$;;;   ;;;   ",
"OOO&&&%%%;;;...***;;;ooo;;;;;;   $%$ooo;;;;;;;;;;;;;;;$%$ooo;;;;;;;;;%%%###**&@@@$$$;;;   ;;;   ",
"OOO&&&%%%;;;...***;;;ooo;;;;;;   $$%ooo;;;;;;;;;;;;;;;$%%ooo;;;;;;;;;%%%###***@@@$$$;;;   ;;;   ",
";;;;;;;;;;;;===***&&&   $$$;;;;;;;;;   &&&&&&;;;===;;;;;;   &&&&&&;;;**&%%%#$$+++;;;;;;%$%ooo;;;",
";;;;;;;;;;;;-=-***&&&   %$$;;;;;;;;;   &&&&&&;;;===;;;;;;   &&&&&&;;;*&*%%%$$$+++;;;;;;$%$ooo;;;",
";;;;;;;;;;;;===***&&&   $%$;;;;;;;;;   &&&&&&;;;===;;;;;;   &&&&&&;;;***%%%$$$+++;;;;;;%$%ooo;;;",
"@@@$$$;;;   ;;;   ***;;;;--###***;;;;;;;;;$%%ooo%%%###;;;;;;;;;*&*=-=;;;**&;;;;;;;;;;;;;;;   $%$",
"@@@$$$;;;   ;;;   *&*;;;---###***;;;;;;;;;%$$ooo%%%###;;;;;;;;;***---;;;***;;;;;;;;;;;;;;;   %$%",
"@@@$$$;;;   ;;;   ***;;;---###***;;;;;;;;;$$%ooo%%%###;;;;;;;;;***-=-;;;***;;;;;;;;;;;;;;;   $%$",
"+++;;;;;;$$%ooo;;;***************###******;;;   ******###************###;;;&&&&&&;;;===;;;;;;---",
"+++;;;;;;$%$ooo;;;***************###******;;;   ******###************###;;;&&&&&&;;;===;;;;;;---",
"+++;;;;;;%$%ooo;;;***************###******;;;   ******###************###;;;&&&&&&;;;===;;;;;;---",
";;;;;;;;;;;;   %%$&&&%%%;;;...***=-=***OOO;;;;;;;;;...-==***oOO*&&%%%;;;@##;;;*&*=-=%%%###******",
";;;;;;;;;;;;   $$%&&&%%%;;;...***===***OOO;;;;;;;;;...===***OOO&&&%%%;;;###;;;***---%%%###******",
";;;;;;;;;;;;   %%$&&&%%%;;;...***--=***OOO;;;;;;;;;...=-=***OOO&&&%%%;;;###;;;***=--%%%###******",
"&&&;;;===;;;;;;---;;;;;;;;;===***;;;   ;;;###***;;;-==;;;   ;;;;;;;;;;;;###*&*@@@$$$;;;   ;;;   ",
"&&&;;;===;;;;;;---;;;;;;;;;-=-***;;;   ;;;###***;;;===;;;   ;;;;;;;;;;;;###*&*@@@$$$;;;   ;;;   ",
"&&&;;;===;;;;;;---;;;;;;;;;===***;;;   ;;;###***;;;=-=;;;   ;;;;;;;;;;;;###***@@@$$$;;;   ;;;   ",
"******************$$$;;;   ;;;   ooo;;;@@@-=-***   ;;;ooo;;;@@@$$$;;;   %%%$#$+++;;;;;;$%$%$%ooo",
"******************$$$;;;   ;;;   ooo;;;@@@===***   ;;;ooo;;;@@@$$$;;;   %%%$$$+++;;;;;;%$%$%$ooo",
"******************$$$;;;   ;;;   ooo;;;@@@-==***   ;;;ooo;;;@@@$$$;;;   %%%$$$+++;;;;;;$%$%$%ooo",
"&&&%%%;;;...*********************   $%$***;;;   ******   %$%+++;;;;;;$$%&**;;;;;;;;;;;;;;;;;;   ",
"&&&%%%;;;...*********************   %$%***;;;   ******   $%$+++;;;;;;$%$***;;;;;;;;;;;;;;;;;;   ",
"&&&%%%;;;...*********************   $%$***;;;   ******   %$$+++;;;;;;%$%&**;;;;;;;;;;;;;;;;;;   ",
";;;;;;;;;=-=***OOO&&&%%%;;;...***;;;---***ooo;;;******;;;---*********###;;;&&&&&&;;;===;;;;;;;;;",
";;;;;;;;;===***OOO&&&%%%;;;...***;;;---***ooo;;;******;;;---*********###;;;&&&&&&;;;===;;;;;;;;;",
";;;;;;;;;=-=***OOO&&&%%%;;;...***;;;---***ooo;;;******;;;---*********###;;;&&&&&&;;;===;;;;;;;;;",
"*********************;;;;;;===*********&&&   %$%...*********&&&%%%;;;XXX###;;;&*&---%%%######***",
"*********************;;;;;;=-=*********&&&   $%$...*********&&&%%%;;;XXX###;;;***=--%%%######***",
"*********************;;;;;;-==*********&&&   $$%...*********&&&%%%;;;XXX###;;;***-=-%%%######***",
"OOOOOO&&&%%%;;;...***;;;   ;;;   ;;;;;;;;;;;;---===***;;;;;;;;;;;;;;;;;;;;;;;;;;;;;;;;;=-====***",
"OOOOOO&&&%%%;;;...***;;;   ;;;   ;;;;;;;;;;;;----=-***;;;;;;;;;;;;;;;;;;;;;;;;;;;;;;;;;-===-=***",
"OOOOOO&&&%%%;;;...***;;;   ;;;   ;;;;;;;;;;;;---===***;;;;;;;;;;;;;;;;;;;;;;;;;;;;;;;;;-===-=***",
";;;;;;;;;;;;;;;===***;;;$%%ooo;;;***@@@$$$******;;;   ***@@@$$$;;;   ###*&*@@@$$$;;;   ;;;;;;   ",
";;;;;;;;;;;;;;;===***;;;%$%ooo;;;&**@@@$$$******;;;   *&*@@@$$$;;;   ###***@@@$$$;;;   ;;;;;;   ",
";;;;;;;;;;;;;;;-=-***;;;$%$ooo;;;***@@@#$$*****=;;;   **&@@@$$$;;;   ###*&*@@@$$$;;;   ;;;;;;   ",
"***@@@$$$;;;   ;;;   ;;;;;;   $%$$$$+++;;;;;;$%$ooo;;;$$$+++;;;;;;%$$%%%$$$+++;;;;;;$%$oooooo;;;",
"**&@@@$$$;;;   ;;;   ;;;;;;   %$%$$$+++;;;;;;%$%ooo;;;$$$+++;;;;;;$%%%%%$$$+++;;;;;;%$%oooooo;;;",
"***@@@$$$;;;   ;;;   ;;;;;;   $%$$$$+++;;;;;;$%$ooo;;;$$$+++;;;;;;%$$%%%$$$+++;;;;;;$%$oooooo;;;",
"#$$+++;;;;;;$%$ooo;;;===;;;;;;---;;;;;;;;;;;;;;;   $%$;;;;;;;;;;;;;;;&**;;;;;;;;;;;;;;;      $%$",
"$$$+++;;;;;;$%%ooo;;;===;;;;;;---;;;;;;;;;;;;;;;   $%$;;;;;;;;;;;;;;;***;;;;;;;;;;;;;;;      $%$",
"$$$+++;;;;;;%$$ooo;;;===;;;;;;---;;;;;;;;;;;;;;;   %$%;;;;;;;;;;;;;;;*&*;;;;;;;;;;;;;;;      %$%",
";;;;;;;;;;;;;;;   $%$%%%###******&&&&&&;;;===;;;;;;---&&&&&&;;;===;;;;;;&&&&&&;;;===;;;;;;;;;---",
";;;;;;;;;;;;;;;   %$%%%%###******&&&&&&;;;===;;;;;;---&&&&&&;;;===;;;;;;&&&&&&;;;===;;;;;;;;;---",
";;;;;;;;;;;;;;;   $%$%%%###******&&&&&&;;;===;;;;;;---&&&&&&;;;===;;;;;;&&&&&&;;;===;;;;;;;;;---",
"&&&&&&;;;===;;;;;;---###;;;***###;;;&**---%%%###******;;;*&*=--%%%######;;;&*&---%%%###*********",
"&&&&&&;;;===;;;;;;---###;;;&*&###;;;***=--%%%###******;;;***---%%%######;;;***=--%%%###*********",
"&&&&&&;;;===;;;;;;---###;;;***###;;;&**-=-%%%###******;;;*&*=--%%%######;;;**&---%%%###*********"
};
