/* XPM */
static char *result[] = {
/* columns rows colors chars-per-pixel */
"48 48 2 1 ",
"  c #F3F8F2",
". c #9B99C2",
/* pixels */
"         ......          ......          ...... ",
"        ........        ........        ........",
"        ........        ........        ........",
"        ........        ........        ........",
"        ........        ........        ........",
"        ........        ........        ........",
"        ........        ........        ........",
"         ......          ......          ...... ",
" ......          ......          ......         ",
"........        ........        ........        ",
"........        ........        ........        ",
"........        ........        ........        ",
"........        ........        ........        ",
"........        ........        ........        ",
"........        ........        ........        ",
" ......          ......          ......         ",
"          ....            ....           ...... ",
"         ......          ......         ........",
"        ........        ........        ........",
"        ...  ...        ...  ...        ........",
"        ...  ...        ...  ...        ........",
"        ........        ........        ........",
"         ......          ......         ........",
"          ....            ....           ...... ",
" ......           ....            ....          ",
"........         ......          ......         ",
"........        ........        ........        ",
"........        ...  ...        ...  ...        ",
"........        ...  ...        ...  ...        ",
"........        ........        ........        ",
"........         ......          ......         ",
" ......           ....            ....          ",
"         ......          ......          ...... ",
"        ........        ........        ........",
"        ........        ........        ........",
"        ........        ........        ........",
"        ........        ........        ........",
"        ........        ........        ........",
"        ........        ........        ........",
"         ......          ......          ...... ",
" ......          ......          ......         ",
"........        ........        ........        ",
"........        ........        ........        ",
"........        ........        ........        ",
"........        ........        ........        ",
"........        ........        ........        ",
"........        ........        ........        ",
" ......          ......          ......         "
};
