/* XPM */
static char *result[] = {
/* columns rows colors chars-per-pixel */
"32 32 4 1 ",
"  c #868686",
". c gray26",
"X c gray59",
"o c #252525",
/* pixels */
"    .X            .X            ",
"    .X            .X            ",
"    .X            .X            ",
"    .X            .X            ",
"    .X            .X            ",
"   ...           ...            ",
"  ..o..         ..o..           ",
"...ooo...........ooo............",
"XXXXXXooooXXXXXXXXXXXXooooXXXXXX",
"       o.X             o.X      ",
"        .X              .X      ",
"        .X              .X      ",
"        .X              .X      ",
"       ...             ...      ",
"      ..o..           ..o..     ",
".......ooo.............ooo......",
".X             .X               ",
".X             .X               ",
".X             .X               ",
".X             .X               ",
".X             .X               ",
"..            ...               ",
"o..          ..o..              ",
"oo............ooo...............",
"XXXXXXooooXXXXXXXXXXXXooooXXXXXX",
"       o.X             o.X      ",
"        .X              .X      ",
"        .X              .X      ",
"        .X              .X      ",
"       ...             ...      ",
"      ..o..           ..o..     ",
".......ooo.............ooo......"
};
