/* XPM */
static char *result[] = {
/* columns rows colors chars-per-pixel */
"32 32 4 1 ",
"  c #252525",
". c gray26",
"X c #868686",
"o c gray59",
/* pixels */
"    ...XXXXXXXXXXXXXX.oXXXXXXXXX",
"   ..o..XXXXXXXXXXXXX.oXXXXXXXXX",
"  ..Xoo..XXXXXXXXXXXX.oXXXXXXXXX",
" ..XXXoo..XXXXXXXXXXX.oXXXXXXXXX",
"..XXXXXoo..XXXXXXXXXX.oXXXXXXXXX",
".XXXXXXXoo..XXXXXXXX...XXXXXXXXX",
".XXXXXXXXoo..XXXXXX.. ..XXXXXXXX",
"..XXXXXXXXXo...........  .......",
"o..XXXXXXXX..oooooooooo    ooooo",
"oo..XXXXXX..oXXXXXXXXXXX .oXXXXX",
"Xoo..XXXX..oXXXXXXXXXXXXX.oXXXXX",
"XXoo..XX..oXXXXXXXXXXXXXX.oXXXXX",
"XXXoo..X.ooXXXXXXXXXXXXXX.oXXXXX",
"XXXXoo...oXXXXXXXXXXXXXX...XXXXX",
"XXXXXoo.oXXXXXXXXXXXXXX.. ..XXXX",
"XXXXXXX.oXXXXXXXXXXXX...........",
"XXXXXXX..XXXXXXXXXX...XXXXXXXXXX",
"XXXXXXX ..XXXXXXXX..ooXXXXXXXXXX",
"XXXXXXX  ...XXXXX..oXXXXXXXXXXXX",
"XXXXXXX  .........oXXXXXXXXXXXXX",
"XXXXXXX ..ooooo...oXXXXXXXXXXXXX",
"XXXXXXX..XXXXXoo.oXXXXXXXXXXXXX.",
"XXXXXXX.oXXXXXX..oXXXXXXXXXXXX..",
"XXXXXXX.oXXXXXX.oXXXXXXXXXX.... ",
"XXXXXXX.oXXXXXX.oXXXXXXXX...oooo",
"XXXXXXX.oXXXXXX.oXXXXXXX..oooXXX",
"XXXXXXX.oXXXXXX.oXXXXXXX.oXXXXXX",
"XXXXXX..oXXXXXX .XXXXXX.ooXXXXXX",
"ooooo...oXXXXXX ..XXXXX.oXXXXXXX",
"...... .oXXXXXX  .......oXXXXXXX",
"XXXXX...oXXXXXX...ooooo.oXXXXXXX",
"XXXXXX..oXXXXXX..XXXXXX.oXXXXXX."
};
