/* XPM */
static char *result[] = {
/* columns rows colors chars-per-pixel */
"32 32 4 1 ",
"  c #868686",
". c gray26",
"X c gray59",
"o c #252525",
/* pixels */
"  .X                  XX....oooo",
"  .X                 XX..  ..ooo",
"  .X                XX..    ..oo",
"  .X               XX..      ..o",
"  .X              XX..        ..",
" ...             XX..        XX.",
"..o..            X..        XX..",
"...........oooo....        XX.. ",
"XXXXXXXXXX..oo..XX...     XX..  ",
"           ....   XX..   XX..   ",
"           X..     XX..  X..    ",
"           X..       X..X..     ",
"           X.         X...      ",
"           X.          X.       ",
"          XX.          X.       ",
"..ooo.....X..          X.       ",
"..o..XXXX....          X.       ",
" ...     XX...         X.       ",
" X.        XX..        X.       ",
" X.          X..       X..      ",
" X.           X.       X...     ",
" X.           X..      X.o......",
" X.             .      X...XXXXX",
".....           ..     oo.      ",
"XXXXX..         ...   ooo       ",
"    XX..        .o.....o.       ",
"      X.        ...XXXXo.       ",
"      X..       ..     X.       ",
"      XX.       .      X.       ",
"       X.       .      X.       ",
"       X..      .      X.       ",
".      Xo..     .      X.       "
};
