/* XPM */
static char *result[] = {
/* columns rows colors chars-per-pixel */
"100 100 8 1 ",
"  c #343127",
". c #3D392E",
"X c #464135",
"o c #4F493C",
"O c #585143",
"+ c #61594A",
"@ c #736958",
"# c #7C715F",
/* pixels */
"...         ++++ooo   ...         +++oooo   ...         +++ooo    ...         +++ooo   ....         ",
"...         ++++ooo   ...         +++oooo   ...         +++ooo    ...         +++ooo   ....         ",
"...         ++++ooo   ...         +++oooo   ...         +++ooo    ...         +++ooo   ....         ",
"   XXX@@@...       +++   XXX@@@...       +++   XXX@@@...      ++++   XXX@@@...      +++    XXX@@@...",
"   XXX@@@...       +++   XXX@@@...       +++   XXX@@@...      ++++   XXX@@@...      +++    XXX@@@...",
"   XXX@@@...       +++   XXX@@@...       +++   XXX@@@...      ++++   XXX@@@...      +++    XXX@@@...",
"         OOO    ++++++         OOO   +++++++         OOO   +++++++         OOO   ++++++          OOO",
"         OOO    ++++++         OOO   +++++++         OOO   +++++++         OOO   ++++++          OOO",
"         OOO    ++++++         OOO   +++++++         OOO   +++++++         OOO   ++++++          OOO",
"oooOOO          XXX###oooOOO         XXXX###oooOOO         XXX####oooOOO         XXX###ooooOOO      ",
"oooOOO          XXX###oooOOO         XXXX###oooOOO         XXX####oooOOO         XXX###ooooOOO      ",
"oooOOO          XXX###oooOOO         XXXX###oooOOO         XXX####oooOOO         XXX###ooooOOO      ",
"oooOOO          XXX###oooOOO         XXXX###oooOOO         XXX####oooOOO         XXX###ooooOOO      ",
"oooXXXOOOOOOXXXXooo   oooXXXOOOOOOXXXoooo   oooXXXOOOOOOXXXooo    oooXXXOOOOOOXXXooo   ooooXXXOOOOOO",
"oooXXXOOOOOOXXXXooo   oooXXXOOOOOOXXXoooo   oooXXXOOOOOOXXXooo    oooXXXOOOOOOXXXooo   ooooXXXOOOOOO",
"oooXXXOOOOOOXXXXooo   oooXXXOOOOOOXXXoooo   oooXXXOOOOOOXXXooo    oooXXXOOOOOOXXXooo   ooooXXXOOOOOO",
"XXX...XXX...    ooo   XXX...XXX...   oooo   XXX...XXX...   ooo    XXX...XXX...   ooo   XXXX...XXX...",
"XXX...XXX...    ooo   XXX...XXX...   oooo   XXX...XXX...   ooo    XXX...XXX...   ooo   XXXX...XXX...",
"XXX...XXX...    ooo   XXX...XXX...   oooo   XXX...XXX...   ooo    XXX...XXX...   ooo   XXXX...XXX...",
"ooo   ooo###    @@@OOOooo   ooo###   @@@@OOOooo   ooo###   @@@OOOOooo   ooo###   @@@OOOoooo   ooo###",
"ooo   ooo###    @@@OOOooo   ooo###   @@@@OOOooo   ooo###   @@@OOOOooo   ooo###   @@@OOOoooo   ooo###",
"ooo   ooo###    @@@OOOooo   ooo###   @@@@OOOooo   ooo###   @@@OOOOooo   ooo###   @@@OOOoooo   ooo###",
"...         ++++ooo   ...         +++oooo   ...         +++ooo    ...         +++ooo   ....         ",
"...         ++++ooo   ...         +++oooo   ...         +++ooo    ...         +++ooo   ....         ",
"...         ++++ooo   ...         +++oooo   ...         +++ooo    ...         +++ooo   ....         ",
"   XXX@@@...       +++   XXX@@@...       +++   XXX@@@...      ++++   XXX@@@...      +++    XXX@@@...",
"   XXX@@@...       +++   XXX@@@...       +++   XXX@@@...      ++++   XXX@@@...      +++    XXX@@@...",
"   XXX@@@...       +++   XXX@@@...       +++   XXX@@@...      ++++   XXX@@@...      +++    XXX@@@...",
"         OOO    ++++++         OOO   +++++++         OOO   +++++++         OOO   ++++++          OOO",
"         OOO    ++++++         OOO   +++++++         OOO   +++++++         OOO   ++++++          OOO",
"         OOO    ++++++         OOO   +++++++         OOO   +++++++         OOO   ++++++          OOO",
"oooOOO          XXX###oooOOO         XXXX###oooOOO         XXX####oooOOO         XXX###ooooOOO      ",
"oooOOO          XXX###oooOOO         XXXX###oooOOO         XXX####oooOOO         XXX###ooooOOO      ",
"oooOOO          XXX###oooOOO         XXXX###oooOOO         XXX####oooOOO         XXX###ooooOOO      ",
"oooXXXOOOOOOXXXXooo   oooXXXOOOOOOXXXoooo   oooXXXOOOOOOXXXooo    oooXXXOOOOOOXXXooo   ooooXXXOOOOOO",
"oooXXXOOOOOOXXXXooo   oooXXXOOOOOOXXXoooo   oooXXXOOOOOOXXXooo    oooXXXOOOOOOXXXooo   ooooXXXOOOOOO",
"oooXXXOOOOOOXXXXooo   oooXXXOOOOOOXXXoooo   oooXXXOOOOOOXXXooo    oooXXXOOOOOOXXXooo   ooooXXXOOOOOO",
"oooXXXOOOOOOXXXXooo   oooXXXOOOOOOXXXoooo   oooXXXOOOOOOXXXooo    oooXXXOOOOOOXXXooo   ooooXXXOOOOOO",
"XXX...XXX...    ooo   XXX...XXX...   oooo   XXX...XXX...   ooo    XXX...XXX...   ooo   XXXX...XXX...",
"XXX...XXX...    ooo   XXX...XXX...   oooo   XXX...XXX...   ooo    XXX...XXX...   ooo   XXXX...XXX...",
"XXX...XXX...    ooo   XXX...XXX...   oooo   XXX...XXX...   ooo    XXX...XXX...   ooo   XXXX...XXX...",
"ooo   ooo###    @@@OOOooo   ooo###   @@@@OOOooo   ooo###   @@@OOOOooo   ooo###   @@@OOOoooo   ooo###",
"ooo   ooo###    @@@OOOooo   ooo###   @@@@OOOooo   ooo###   @@@OOOOooo   ooo###   @@@OOOoooo   ooo###",
"ooo   ooo###    @@@OOOooo   ooo###   @@@@OOOooo   ooo###   @@@OOOOooo   ooo###   @@@OOOoooo   ooo###",
"...         ++++ooo   ...         +++oooo   ...         +++ooo    ...         +++ooo   ....         ",
"...         ++++ooo   ...         +++oooo   ...         +++ooo    ...         +++ooo   ....         ",
"...         ++++ooo   ...         +++oooo   ...         +++ooo    ...         +++ooo   ....         ",
"   XXX@@@...       +++   XXX@@@...       +++   XXX@@@...      ++++   XXX@@@...      +++    XXX@@@...",
"   XXX@@@...       +++   XXX@@@...       +++   XXX@@@...      ++++   XXX@@@...      +++    XXX@@@...",
"   XXX@@@...       +++   XXX@@@...       +++   XXX@@@...      ++++   XXX@@@...      +++    XXX@@@...",
"         OOO    ++++++         OOO   +++++++         OOO   +++++++         OOO   ++++++          OOO",
"         OOO    ++++++         OOO   +++++++         OOO   +++++++         OOO   ++++++          OOO",
"         OOO    ++++++         OOO   +++++++         OOO   +++++++         OOO   ++++++          OOO",
"oooOOO          XXX###oooOOO         XXXX###oooOOO         XXX####oooOOO         XXX###ooooOOO      ",
"oooOOO          XXX###oooOOO         XXXX###oooOOO         XXX####oooOOO         XXX###ooooOOO      ",
"oooOOO          XXX###oooOOO         XXXX###oooOOO         XXX####oooOOO         XXX###ooooOOO      ",
"...         ++++ooo   ...         +++oooo   ...         +++ooo    ...         +++ooo   ....         ",
"...         ++++ooo   ...         +++oooo   ...         +++ooo    ...         +++ooo   ....         ",
"...         ++++ooo   ...         +++oooo   ...         +++ooo    ...         +++ooo   ....         ",
"   XXX@@@...       +++   XXX@@@...       +++   XXX@@@...      ++++   XXX@@@...      +++    XXX@@@...",
"   XXX@@@...       +++   XXX@@@...       +++   XXX@@@...      ++++   XXX@@@...      +++    XXX@@@...",
"   XXX@@@...       +++   XXX@@@...       +++   XXX@@@...      ++++   XXX@@@...      +++    XXX@@@...",
"   XXX@@@...       +++   XXX@@@...       +++   XXX@@@...      ++++   XXX@@@...      +++    XXX@@@...",
"         OOO    ++++++         OOO   +++++++         OOO   +++++++         OOO   ++++++          OOO",
"         OOO    ++++++         OOO   +++++++         OOO   +++++++         OOO   ++++++          OOO",
"         OOO    ++++++         OOO   +++++++         OOO   +++++++         OOO   ++++++          OOO",
"oooOOO          XXX###oooOOO         XXXX###oooOOO         XXX####oooOOO         XXX###ooooOOO      ",
"oooOOO          XXX###oooOOO         XXXX###oooOOO         XXX####oooOOO         XXX###ooooOOO      ",
"oooOOO          XXX###oooOOO         XXXX###oooOOO         XXX####oooOOO         XXX###ooooOOO      ",
"oooXXXOOOOOOXXXXooo   oooXXXOOOOOOXXXoooo   oooXXXOOOOOOXXXooo    oooXXXOOOOOOXXXooo   ooooXXXOOOOOO",
"oooXXXOOOOOOXXXXooo   oooXXXOOOOOOXXXoooo   oooXXXOOOOOOXXXooo    oooXXXOOOOOOXXXooo   ooooXXXOOOOOO",
"oooXXXOOOOOOXXXXooo   oooXXXOOOOOOXXXoooo   oooXXXOOOOOOXXXooo    oooXXXOOOOOOXXXooo   ooooXXXOOOOOO",
"XXX...XXX...    ooo   XXX...XXX...   oooo   XXX...XXX...   ooo    XXX...XXX...   ooo   XXXX...XXX...",
"XXX...XXX...    ooo   XXX...XXX...   oooo   XXX...XXX...   ooo    XXX...XXX...   ooo   XXXX...XXX...",
"XXX...XXX...    ooo   XXX...XXX...   oooo   XXX...XXX...   ooo    XXX...XXX...   ooo   XXXX...XXX...",
"ooo   ooo###    @@@OOOooo   ooo###   @@@@OOOooo   ooo###   @@@OOOOooo   ooo###   @@@OOOoooo   ooo###",
"ooo   ooo###    @@@OOOooo   ooo###   @@@@OOOooo   ooo###   @@@OOOOooo   ooo###   @@@OOOoooo   ooo###",
"ooo   ooo###    @@@OOOooo   ooo###   @@@@OOOooo   ooo###   @@@OOOOooo   ooo###   @@@OOOoooo   ooo###",
"...         ++++ooo   ...         +++oooo   ...         +++ooo    ...         +++ooo   ....         ",
"...         ++++ooo   ...         +++oooo   ...         +++ooo    ...         +++ooo   ....         ",
"...         ++++ooo   ...         +++oooo   ...         +++ooo    ...         +++ooo   ....         ",
"   XXX@@@...       +++   XXX@@@...       +++   XXX@@@...      ++++   XXX@@@...      +++    XXX@@@...",
"   XXX@@@...       +++   XXX@@@...       +++   XXX@@@...      ++++   XXX@@@...      +++    XXX@@@...",
"   XXX@@@...       +++   XXX@@@...       +++   XXX@@@...      ++++   XXX@@@...      +++    XXX@@@...",
"         OOO    ++++++         OOO   +++++++         OOO   +++++++         OOO   ++++++          OOO",
"         OOO    ++++++         OOO   +++++++         OOO   +++++++         OOO   ++++++          OOO",
"         OOO    ++++++         OOO   +++++++         OOO   +++++++         OOO   ++++++          OOO",
"         OOO    ++++++         OOO   +++++++         OOO   +++++++         OOO   ++++++          OOO",
"oooOOO          XXX###oooOOO         XXXX###oooOOO         XXX####oooOOO         XXX###ooooOOO      ",
"oooOOO          XXX###oooOOO         XXXX###oooOOO         XXX####oooOOO         XXX###ooooOOO      ",
"oooOOO          XXX###oooOOO         XXXX###oooOOO         XXX####oooOOO         XXX###ooooOOO      ",
"oooXXXOOOOOOXXXXooo   oooXXXOOOOOOXXXoooo   oooXXXOOOOOOXXXooo    oooXXXOOOOOOXXXooo   ooooXXXOOOOOO",
"oooXXXOOOOOOXXXXooo   oooXXXOOOOOOXXXoooo   oooXXXOOOOOOXXXooo    oooXXXOOOOOOXXXooo   ooooXXXOOOOOO",
"oooXXXOOOOOOXXXXooo   oooXXXOOOOOOXXXoooo   oooXXXOOOOOOXXXooo    oooXXXOOOOOOXXXooo   ooooXXXOOOOOO",
"XXX...XXX...    ooo   XXX...XXX...   oooo   XXX...XXX...   ooo    XXX...XXX...   ooo   XXXX...XXX...",
"XXX...XXX...    ooo   XXX...XXX...   oooo   XXX...XXX...   ooo    XXX...XXX...   ooo   XXXX...XXX...",
"XXX...XXX...    ooo   XXX...XXX...   oooo   XXX...XXX...   ooo    XXX...XXX...   ooo   XXXX...XXX...",
"ooo   ooo###    @@@OOOooo   ooo###   @@@@OOOooo   ooo###   @@@OOOOooo   ooo###   @@@OOOoooo   ooo###",
"ooo   ooo###    @@@OOOooo   ooo###   @@@@OOOooo   ooo###   @@@OOOOooo   ooo###   @@@OOOoooo   ooo###",
"ooo   ooo###    @@@OOOooo   ooo###   @@@@OOOooo   ooo###   @@@OOOOooo   ooo###   @@@OOOoooo   ooo###"
};
