/* XPM */
static char *result[] = {
/* columns rows colors chars-per-pixel */
"48 48 8 1 ",
"  c #F3F8F2",
". c #9B99C2",
"X c black",
"o c white",
"O c gray85",
"+ c gray70",
"@ c #848484",
"# c gray40",
/* pixels */
"         ......          ......          ...... ",
"        ........        ........        ........",
"        ........        ........        ........",
"        ........        ........        ........",
"        ........XXXXXXXXXXXXXXX.        ........",
"        ........XXXXXXXXXXXXXXX.        ........",
"        ..XXXXXXoooooooooooooooXXXXXX   ........",
"         .XXXXXXoooooooooooooooXXXXXX    ...... ",
" ......   XXXXXXoooooooooooooooXXXXXX..         ",
".......XXXoooOOOOOOoooooooooOOOOOOoooXXX        ",
".......XXXoooOOOOOOoooooooooOOOOOOoooXXX        ",
".......XXXoooOOOOOOoooooooooOOOOOOoooXXX        ",
"....XXXooo++++++oooOOOoooOOOooo++++++oooXXX     ",
"....XXXooo++++++oooOOOoooOOOooo++++++oooXXX     ",
"....XXXooo++++++oooOOOoooOOOooo++++++oooXXX     ",
" .XXooo++++++OOO++++++ooo++++++OOO++++++oooXX   ",
"  XXooo++++++OOO++++++ooo++++++OOO++++++oooXX.. ",
"  XXooo++++++OOO++++++ooo++++++OOO++++++oooXX...",
"  XXOOO@@@+++@@@@@@ooooooooo@@@@@@+++@@@OOOXX...",
"  XXOOO@@@+++@@@@@@ooooooooo@@@@@@+++@@@OOOXX...",
"  XXOOO@@@+++@@@@@@ooooooooo@@@@@@+++@@@OOOXX...",
"  XX@@@OOOOOOOOOoooooooooooooooOOOOOOOOO@@@XX...",
"  XX@@@OOOOOOOOOoooooooooooooooOOOOOOOOO@@@XX...",
"  XX@@@OOOOOOOOOoooooooooooooooOOOOOOOOO@@@XX.. ",
" ...XXX######OOO@@@###ooo###@@@OOO######XXX     ",
"....XXX######OOO@@@###ooo###@@@OOO######XXX     ",
"....XXX######OOO@@@###ooo###@@@OOO######XXX     ",
".......XXX###@@@OOO@@@ooo@@@OOO@@@###XXX        ",
".......XXX###@@@OOO@@@ooo@@@OOO@@@###XXX        ",
".......XXX###@@@OOO@@@ooo@@@OOO@@@###XXX        ",
"........  XXX###@@@@@@OOO@@@@@@###XXX...        ",
" ......   XXX###@@@@@@OOO@@@@@@###XXX..         ",
"         .XXX###@@@@@@OOO@@@@@@###XXX    ...... ",
"        .....XXX###@@@OOO@@@###XXX      ........",
"        .....XXX###@@@OOO@@@###XXX      ........",
"        .....XXX###@@@OOO@@@###XXX      ........",
"        ........XXX###OOO###XXX.        ........",
"        ........XXX###OOO###XXX.        ........",
"        ........XXX###OOO###XXX.        ........",
"         ......    XXX@@@XXX...          ...... ",
" ......          ..XXX@@@XXX     ......         ",
"........        ...XXX@@@XXX    ........        ",
"........        ......XXX       ........        ",
"........        ......XXX       ........        ",
"........        ........        ........        ",
"........        ........        ........        ",
"........        ........        ........        ",
" ......          ......          ......         "
};
