/* XPM */
static char *result[] = {
/* columns rows colors chars-per-pixel */
"32 32 7 1 ",
"  c #1A1E1C",
". c #241F1C",
"X c #342823",
"o c #3C2F2C",
"O c #231917",
"+ c #454238",
"@ c #140E0E",
/* pixels */
"                                ",
" ...XXXXXXXXXXXXX....    .XXXXX ",
" .XXooooooooooooo.oooooooXXXXXX ",
" ..OOoXOOOOXX.OOOXXOOOOXXOOOOXo ",
" oXXXooXooXXXXXXXXXXXXXXXoooXXo ",
" o.OOXX.OO.XXOOOOOXOOO.XX.OOOXo ",
" X..OXoO...XX....OXO...Xo....oo ",
" X..OXo....XX....oXO...Xo....oo ",
" X.XoXoooXXXXXXXooXoooooooXXXXX ",
" XX++ooX+++XX++XXXXX+++XX...XXX ",
" X...XX....XX.....X....XX.@...X ",
" X.@@XX.@@@Xo..@@.X@@@@X+@@..+X ",
" X.@@XX@@@@Xo@@@@.+@@@@X+@@@.oX ",
" XXXXoXX+++XoooooX++++XX++oXXoX ",
" XXooooooXXXXXXXXXXXXXXoXXXXXoX ",
" X.@@XX@@@@XX@@@@XX@@@@oX@@@.oX ",
" X.@@XX@@@@Xo@@@@Xo@@@@oX@@@.oX ",
" X.@@XX@@@@Xo@@@@Xo@@@@oX@@@.oX ",
" XXXooooXXXooX+++Xooo++oXXXXXoX ",
" XX+++X+++XXXXXXXXXXXXXoXXXXX.X ",
" X.@@+X@@@@XX@@@@XX@@@@oX@@@@.X ",
" X.@@+o@@@@XX@@@@X+@@@@XX@@@@.X ",
" X.@@Xo@@@@++@@@@X+@@@@X+@@@@+o ",
" XXXXXoXX+++X++XoX++++Xoo++XXXo ",
" XoooooXXXXXXXoooX++XXXoooooooo ",
" X..@XX@@@@XX@@@@X+@@@@XX@@@.Xo ",
" X.@@+o@@@@Xo@@@@XX@@@@.+@@@.Xo ",
" X.+++o@@@@+o@@@@+X@@@@X+@@@.+X ",
" .oooooXooooooooo+XXXXXoooo+++X ",
" ..ooooooXXXXX.......XooXXXoooX ",
" XXXXXXXXXXX..XXXXXXXXXXXXXXXXX ",
"                                "
};
