/* XPM */
static char *result[] = {
/* columns rows colors chars-per-pixel */
"48 48 57 1 ",
"  c #5C3925",
". c #5B3925",
"X c #5D3B26",
"o c #5E3C29",
"O c #5F3D2A",
"+ c #5F3E2A",
"@ c #603E2A",
"# c #603F2A",
"$ c #603F2B",
"% c #5E3B27",
"& c #5E3D29",
"* c #5D3B28",
"= c #5A3725",
"- c #5A3722",
"; c #583622",
": c #5D3A26",
"> c #57331E",
", c #A2A09A",
"< c #7B766E",
"1 c #827F76",
"2 c #57341F",
"3 c #79766B",
"4 c #79776C",
"5 c #8D8B81",
"6 c #8B897E",
"7 c #7A756D",
"8 c #7B7770",
"9 c #827F77",
"0 c #8F8D83",
"q c #8D8B82",
"w c #593621",
"e c #5B3824",
"r c #747065",
"t c #9D9A92",
"y c #918D84",
"u c #8E8C83",
"i c #8B8980",
"p c #645E52",
"a c #7C796F",
"s c #8E8C81",
"d c #878579",
"f c #8E8C82",
"g c #5A3723",
"h c #99978E",
"j c #9A9890",
"k c #5B3924",
"l c #5D3B27",
"z c #98968E",
"x c #5E3C27",
"c c #5C3A25",
"v c #5E3C28",
"b c #9C9A92",
"n c #615A4F",
"m c #583520",
"M c #583420",
"N c #593520",
"B c #58341F",
/* pixels */
"   . XoO+++@#$$$%%%%%%%%%%%%%%%%%$$$$$++&*=-;:  ",
" >,<<<<<<<<<<<<<<<<<<<<<<<<<<<<<<<<<<<<<<<<11,2 ",
" 34,<<<<<<<<1<<<<<<<<<<<<<<<<<<<<<<<<<<<<111,56 ",
"-444,7<<<<81999<<<<<<<<<<<<<<<<<<<<<<<<<111,0q6w",
"er444,,,,,,,,,t,,,,,,,,,,,,,,,,,,tttt,,,,,,yuir-",
" pra,sssdddddddddddddddd,,,,,,ddddsssssssss,frrg",
"Xpphddddddddddddddddddddddddddddddddddddddddjrpe",
":rrhddddddddddddddddddddddddddddddddddddddddjppk",
"lrrhddddddddddddddddddddddddddddddddddddddddzpp ",
"%rrhddddddddddddddddddddddddddddddddddddddddzpp ",
"%rrhddddddddddddddddddddddddddddddddddddddddzpp ",
"xrrhddddddddddddddddddddddddddddddddddddddddzppc",
"xrrhddddddddddddddddddddddddddddddddddddddddzppc",
"xrrhddddddddddddddddddddddddddddddddddddddddzpp ",
"xrrhddddddddddddddddddddddddddddddddddddddddzppc",
"xrrhddddddddddddddddddddddddddddddddddddddddzppc",
"%rrhdddddddddddddddddddddddddddddddddddddddd,pp%",
"%rrhdddddddddddddddddddddddddddddddddddddddd,pp%",
"%rrhdddddddddddddddddddddddddddddddddddddddd,pp%",
"%rrhdddddddddddddddddddddddddddddddddddddddd,pp%",
"%rrhdddddddddddddddddddddddddddddddddddddddd,pp%",
"%rrhdddddddddddddddddddddddddddddddddddddddd,pp%",
"%rrhdddddddddddddddddddddddddddddddddddddddd,pp%",
"%rrhdddddddddddddddddddddddddddddddddddddddd,pp%",
"%rrhdddddddddddddddddddddddddddddddddddddddd,pp%",
"%rrhdddddddddddddddddddddddddddddddddddddddd,pp%",
"%rrhdddddddddddddddddddddddddddddddddddddddd,pp%",
"%rrhdddddddddddddddddddddddddddddddddddddddd,pp%",
"%rrhdddddddddddddddddddddddddddddddddddddddd,pp%",
"%rrhdddddddddddddddddddddddddddddddddddddddd,pp%",
"%rrhdddddddddddddddddddddddddddddddddddddddd,pp%",
"%rrhdddddddddddddddddddddddddddddddddddddddd,pp%",
"vrrhsdddddddddddddddddddddddddddddddddddddddzppc",
"vrrhsssdddddddddddddddddddddddddddddddddddddzppc",
"vrrhsssddddddddddddddddddddddddddddddssdddddzpp ",
"vrrbsssddddddddddddddddddddddddddddddssdddddzpp ",
"%rr,sdddddddddddddddddddddddddddddddddddddddzpp ",
"lrr,sdddddddddddddddddddddddddddddddddddddddzppe",
"Xrr,sdddddddddddddddddddddddddddddddddddddddzppg",
"crr,sssddddddddddddddddddddddddddddddddsddds,pp-",
"krr,sssssddddddddddddddddddddddddddddssssdss,ppw",
"grr,sssssdddssdddddddddddddddddddddsssssssss,nnm",
"wrrf,ssssssssssddddddddddddddddddssssssssss,annM",
"Nriuy,,,,,,ttttt,,,,,,,,,,,,,,,,,t,,,,,,,,,444nB",
"B6q0,1111<<<<<<8<<<<<<<<<<<<<<11199918<<<<7,4442",
"B65,1111<<<<<<<<<<<<<<<<<<<<<<<1111111<<<<<<,44>",
"N>,11<<<<<<<<<<<<<<<<<<<<<<<<<<<<<<<<<<<<<<<<,>N",
"NN>>>>>>>>>>>>>>%%%%%%%%%%%%%%%%%%>>>>>>>>>>>>NN"
};
